<svg width="80" height="75" viewBox="0 0 80 75" fill="none" xmlns="http://www.w3.org/2000/svg">
<path d="M39.7332 74.5399C36.9464 74.5399 34.161 73.9914 31.5816 72.896L19.2475 67.6605C14.7853 65.7652 10.0672 64.5649 5.22456 64.0922L1.17411 63.6967C0.507238 63.6319 0 63.0841 0 62.43V50.0237C0 49.7484 0.0917505 49.4804 0.261079 49.2604C0.56393 48.8649 7.82341 39.6044 18.9125 42.0139C25.1493 43.3672 30.171 45.8997 33.2853 47.7862C35.5462 49.1555 38.1965 49.8788 40.9498 49.8788H53.2839C55.4098 49.8788 57.2784 50.9772 58.3235 52.6247L68.9464 40.6744C71.0059 37.9889 74.3753 36.3442 77.9029 36.3442H78.6965C79.1374 36.3442 79.5477 36.5613 79.7878 36.9211C80.0288 37.2809 80.0668 37.7362 79.89 38.1295L70.2824 59.4503C68.1818 64.1133 63.9046 67.6357 58.8419 68.8717L57.1516 69.284L47.3186 73.1247C44.8988 74.0694 42.3156 74.5399 39.7332 74.5399ZM2.6078 61.2778L5.48414 61.5589C10.5961 62.0578 15.5767 63.3259 20.288 65.326L32.6214 70.5616C36.9583 72.4029 41.9598 72.475 46.3511 70.7597L56.2647 66.8877C56.3199 66.8665 56.3758 66.8491 56.4333 66.8352L58.2093 66.4011C62.4962 65.3544 66.1178 62.3725 67.8953 58.4247L76.6586 38.978C74.4149 39.3007 72.3501 40.4814 70.9746 42.2717L59.2067 55.5149C59.2081 55.5644 59.2089 55.6132 59.2089 55.6635C59.2089 58.853 56.5511 61.4482 53.2846 61.4482H36.0758C33.8388 61.4482 31.6278 61.7985 29.5056 62.489L29.0267 61.3018L28.6217 60.092L28.6881 60.0709C31.0698 59.2959 33.5575 58.9018 36.0758 58.9018H53.2846C55.1129 58.9018 56.6018 57.4487 56.6018 55.6628C56.6018 53.8768 55.1137 52.4237 53.2846 52.4237H40.9506C37.7109 52.4237 34.5855 51.5679 31.912 49.9487C28.97 48.1664 24.2273 45.7752 18.3486 44.4983C9.95082 42.6796 3.90797 48.9727 2.60855 50.4739V61.2778H2.6078Z" fill="#7AB6F3"/>
<path d="M51.3429 36.0566C49.3378 36.0566 47.0896 35.4521 44.6146 34.2437C44.3147 34.0966 44.0835 33.8416 43.9701 33.5336C43.8694 33.2575 41.5398 26.7146 45.2419 21.876C47.9325 18.3588 52.9914 16.7746 60.2867 17.1715C60.9521 17.2072 61.4824 17.728 61.5153 18.3792C61.5414 18.8846 62.0792 30.816 55.8484 34.7885C54.5236 35.6342 53.0183 36.0566 51.3429 36.0566ZM46.2773 32.2006C49.7019 33.7688 52.4394 33.9225 54.4236 32.6573C58.1183 30.3011 58.9172 23.3066 58.9366 19.6662C53.2204 19.53 49.3289 20.7879 47.3305 23.3991C44.9525 26.5085 45.8767 30.7854 46.2773 32.2006Z" fill="#7AB6F3"/>
<path d="M31.4055 19.3779C29.0938 19.3779 26.4271 18.8942 24.0997 17.2299C20.1522 14.4053 18.3381 9.02775 18.7066 1.24732C18.7379 0.596892 19.2661 0.0739243 19.9322 0.0353209C20.4961 0.00400103 33.844 -0.69159 38.3353 5.8914C40.4269 8.95564 40.2553 12.9689 37.8273 17.8221C37.6796 18.117 37.4215 18.345 37.106 18.4579C36.9307 18.5213 34.4832 19.3779 31.4055 19.3779ZM36.6562 17.2634H36.6688H36.6562ZM21.2726 2.54018C21.16 8.77209 22.6273 13.0199 25.6401 15.1759C29.2475 17.7565 34.1729 16.6596 35.7215 16.2189C37.4931 12.4649 37.643 9.46768 36.1661 7.30297C33.421 3.27947 25.3708 2.49283 21.2726 2.54018Z" fill="#7AB6F3"/>
<path d="M41.5868 51.9765C41.5458 51.9765 41.5048 51.9743 41.463 51.9706C40.7685 51.9066 40.2486 51.3202 40.2837 50.6392C40.3605 49.1417 40.4918 47.7214 40.6701 46.3753C41.2124 37.3669 40.9326 16.3886 27.3491 10.5849C26.6897 10.3031 26.3884 9.55284 26.677 8.90824C26.965 8.26509 27.7355 7.97156 28.3942 8.25271C36.3988 11.6724 41.4347 20.1862 42.9541 32.8736C43.0906 34.0106 43.1928 35.1316 43.2689 36.2234C46.8464 27.3963 52.3194 24.2775 52.6453 24.099C53.2719 23.7531 54.0671 23.973 54.4207 24.5841C54.772 25.1959 54.5512 25.9702 53.9269 26.3154C53.7889 26.3941 45.3963 31.312 43.2898 46.478C43.1294 49.0725 42.8982 50.7266 42.8766 50.8781C42.7863 51.5132 42.2306 51.9765 41.5868 51.9765Z" fill="#7AB6F3"/>
</svg>
