<svg width="80" height="64" viewBox="0 0 80 64" fill="none" xmlns="http://www.w3.org/2000/svg">
<path d="M78.8281 60.8606H75.2952V34.3718C75.2952 33.7399 74.7706 33.2275 74.1233 33.2275C73.4759 33.2275 72.9514 33.7399 72.9514 34.3718V56.0928H69.1345V49.2913C69.1345 47.8191 67.908 46.6215 66.4003 46.6215H46.4583C45.8109 46.6215 45.2864 47.1338 45.2864 47.7657C45.2864 48.3977 45.8109 48.91 46.4583 48.91H54.4695V60.8608H52.8356V58.8446C52.8356 58.2126 52.3111 57.7003 51.6637 57.7003C51.0164 57.7003 50.4919 58.2126 50.4919 58.8446V60.8608H49.0859V58.8446C49.0859 58.2126 48.5614 57.7003 47.9141 57.7003C47.2667 57.7003 46.7422 58.2126 46.7422 58.8446V60.8608H45.3362V58.8446C45.3362 58.2126 44.8117 57.7003 44.1644 57.7003C43.517 57.7003 42.9925 58.2126 42.9925 58.8446V60.8608H41.5865V58.8446C41.5865 58.2126 41.062 57.7003 40.4147 57.7003C39.7673 57.7003 39.2428 58.2126 39.2428 58.8446V60.8608H36.7103V49.2913C36.7103 49.081 36.8855 48.91 37.1008 48.91H40.8855C41.5328 48.91 42.0573 48.3977 42.0573 47.7657C42.0573 47.1338 41.5328 46.6215 40.8855 46.6215H37.1008C35.5931 46.6215 34.3666 47.8191 34.3666 49.2913V56.0928H30.5497V49.2913C30.5497 47.8191 29.3231 46.6215 27.8155 46.6215H21.7437C19.8055 46.6215 18.2284 45.0817 18.2284 43.189V35.1691H25.759C29.5992 35.1691 32.7233 32.1187 32.7233 28.369V27.9439C32.7233 27.4743 32.6742 27.0157 32.5809 26.5726C33.6951 24.6678 34.3356 22.4665 34.3356 20.1201C34.3356 19.4882 33.8111 18.9759 33.1637 18.9759C32.5164 18.9759 31.9919 19.4882 31.9919 20.1201C31.9919 21.4284 31.7495 22.6819 31.3095 23.8425C30.0367 22.2042 28.0226 21.1436 25.7589 21.1436H16.1504C13.8867 21.1436 11.8726 22.2041 10.5998 23.8425C10.1598 22.6818 9.91748 21.4284 9.91748 20.1201V8.08802H31.9917V14.7156C31.9917 15.3476 32.5162 15.8599 33.1636 15.8599C33.8109 15.8599 34.3355 15.3476 34.3355 14.7156V13.9079C34.5606 13.929 34.7878 13.9436 35.0186 13.9436C37.0439 13.9436 38.9384 13.0976 40.2714 11.7009H63.1866C68.5708 11.7009 72.9511 15.9782 72.9511 21.2356V28.9809C72.9511 29.6129 73.4756 30.1252 74.123 30.1252C74.7703 30.1252 75.2948 29.6129 75.2948 28.9809V21.2356C75.2948 14.7163 69.863 9.41233 63.1866 9.41233H41.728C41.7323 9.40088 41.7373 9.38959 41.7417 9.378C42.049 8.56938 41.9297 7.66159 41.4228 6.94985C40.9097 6.22957 40.0675 5.79948 39.1703 5.79948H34.3358H31.35V3.13637C31.35 1.407 29.909 0 28.1378 0H27.9847C26.2134 0 24.7725 1.407 24.7725 3.13637V5.79963H17.137V3.13637C17.137 1.407 15.6961 0 13.9248 0H13.7717C12.0004 0 10.5595 1.407 10.5595 3.13637V5.79963H7.57388H2.73935C1.84216 5.79963 0.999973 6.22972 0.486848 6.95001C-0.0200272 7.66174 -0.139402 8.56938 0.167785 9.378C1.20513 12.1088 3.90685 13.9438 6.89076 13.9438C7.12154 13.9438 7.34873 13.9293 7.57388 13.9081V20.1203C7.57388 22.4666 8.21435 24.6679 9.32857 26.5726C9.23529 27.0157 9.18623 27.4743 9.18623 27.9439V28.369C9.18623 32.0315 12.1673 35.0254 15.8847 35.1626V43.1891V60.8608H14.4014V58.8446C14.4014 58.2126 13.8769 57.7003 13.2295 57.7003C12.5822 57.7003 12.0576 58.2126 12.0576 58.8446V60.8608H11.1204V58.8446C11.1204 58.2126 10.5959 57.7003 9.94857 57.7003C9.30123 57.7003 8.7767 58.2126 8.7767 58.8446V60.8608H7.25294C6.6056 60.8608 6.08107 61.3731 6.08107 62.0051C6.08107 62.637 6.6056 63.1493 7.25294 63.1493H78.8281C79.4755 63.1493 80 62.637 80 62.0051C80 61.3731 79.4755 60.8606 78.8281 60.8606ZM34.3358 8.08817H39.1703C39.3583 8.08817 39.4625 8.20611 39.4987 8.25692C39.5491 8.32756 39.598 8.44122 39.5444 8.5822C38.8462 10.4202 37.0276 11.6553 35.0189 11.6553C34.7869 11.6553 34.559 11.6383 34.3358 11.607V8.08817ZM27.1162 3.13637C27.1162 2.6689 27.5058 2.28854 27.9847 2.28854H28.1378C28.6165 2.28854 29.0062 2.6689 29.0062 3.13637V5.79963H27.8501H27.1164V3.13637H27.1162ZM12.9034 3.13637C12.9034 2.6689 13.2929 2.28854 13.7719 2.28854H13.925C14.4037 2.28854 14.7934 2.6689 14.7934 3.13637V5.79963H14.0597H12.9036V3.13637H12.9034ZM7.57388 11.6069C7.3506 11.638 7.12279 11.6551 6.89076 11.6551C4.88216 11.6551 3.06341 10.4202 2.36513 8.58189C2.31169 8.44122 2.3606 8.3274 2.41091 8.25676C2.44701 8.20596 2.55122 8.08802 2.73935 8.08802H7.57388V11.6069ZM11.5301 28.369V27.9439C11.5301 25.4562 13.6029 23.4323 16.1506 23.4323H25.759C28.3069 23.4323 30.3795 25.4562 30.3795 27.9439V28.369C30.3795 30.8566 28.3067 32.8806 25.759 32.8806H16.1506C13.6028 32.8806 11.5301 30.8566 11.5301 28.369ZM22.0453 60.8606H18.2284V58.3814H22.0453V60.8606ZM22.0455 56.0928H18.2284V47.7628C19.2083 48.4827 20.4258 48.91 21.7437 48.91H22.0455V56.0928ZM28.2061 60.8606H24.3892V48.9099H27.8156C28.0309 48.9099 28.2061 49.0809 28.2061 49.2911V60.8606ZM34.3666 60.8606H30.5497V58.3814H34.3666V60.8606ZM60.6301 60.8606H56.8133V58.3814H60.6301V60.8606ZM60.6301 56.0928H56.8133V48.91H60.6301V56.0928ZM66.7908 60.8606H62.9739V48.9099H66.4003C66.6156 48.9099 66.7908 49.0809 66.7908 49.2911V60.8606ZM72.9514 60.8606H69.1345V58.3814H72.9514V60.8606Z" fill="#7AB6F3"/>
<path d="M14.6005 15.4111V17.7115C14.6005 18.3434 15.1251 18.8557 15.7724 18.8557C16.4197 18.8557 16.9442 18.3434 16.9442 17.7115V15.4111C16.9442 14.7792 16.4197 14.2668 15.7724 14.2668C15.1251 14.2668 14.6005 14.7792 14.6005 15.4111Z" fill="#7AB6F3"/>
<path d="M24.9655 15.4111V17.7115C24.9655 18.3434 25.49 18.8557 26.1373 18.8557C26.7847 18.8557 27.3092 18.3434 27.3092 17.7115V15.4111C27.3092 14.7792 26.7847 14.2668 26.1373 14.2668C25.49 14.2668 24.9655 14.7792 24.9655 15.4111Z" fill="#7AB6F3"/>
<path d="M17.8301 26.4634H15.9553C15.3079 26.4634 14.7834 26.9758 14.7834 27.6079C14.7834 28.2399 15.3079 28.7524 15.9553 28.7524H17.8301C18.4775 28.7524 19.002 28.2399 19.002 27.6079C19.002 26.9758 18.4773 26.4634 17.8301 26.4634Z" fill="#7AB6F3"/>
<path d="M27.1263 27.6079C27.1263 26.9758 26.6017 26.4634 25.9544 26.4634H24.0795C23.4322 26.4634 22.9077 26.9758 22.9077 27.6079C22.9077 28.2399 23.4322 28.7524 24.0795 28.7524H25.9544C26.6017 28.7524 27.1263 28.2401 27.1263 27.6079Z" fill="#7AB6F3"/>
</svg>
