<svg width="68" height="88" viewBox="0 0 68 88" fill="none" xmlns="http://www.w3.org/2000/svg">
<path d="M20.5822 12.5427C20.0078 12.0958 19.1712 12.188 18.7132 12.7492L17.3488 14.4217C16.891 14.9829 16.9858 15.8001 17.5602 16.2472C17.8051 16.4376 18.0975 16.5302 18.3882 16.5302C18.7793 16.5302 19.1667 16.3626 19.4292 16.0408L20.7936 14.3683C21.2512 13.8069 21.1566 12.9897 20.5822 12.5427Z" fill="#7AB6F3"/>
<path d="M16.8568 17.1084C16.2821 16.6618 15.4459 16.754 14.9878 17.3149L11.263 21.8804C10.8052 22.4414 10.9 23.2585 11.4742 23.7054C11.7193 23.8958 12.0115 23.9884 12.3022 23.9884C12.6933 23.9884 13.0805 23.8209 13.3431 23.4991L17.0681 18.9336C17.5258 18.3724 17.4312 17.5552 16.8568 17.1084Z" fill="#7AB6F3"/>
<path d="M66.613 25.9128C66.6119 25.9113 66.6112 25.9097 66.6103 25.9082L55.4024 8.4938C55.0992 8.02262 54.7109 7.65698 54.2705 7.4131V3.90303C54.2705 1.75085 52.0812 0 49.3902 0H22.6725C19.9815 0 17.7924 1.75085 17.7924 3.90303V7.27152C16.8869 7.5043 15.7761 7.99546 14.9493 9.02647L0.771265 26.4023C0.750277 26.4265 0.730863 26.4516 0.710749 26.4764C0.267372 27.0227 0.000296876 27.7115 0.000296876 28.461V55.6906C0.000296876 56.4078 0.595663 56.9892 1.33025 56.9892C2.06484 56.9892 2.66021 56.4078 2.66021 55.6906V43.5557H38.6419C38.6411 49.0892 38.6404 55.4207 38.6398 61.3981H2.66021V60.5387C2.66021 59.8214 2.06484 59.2401 1.33025 59.2401C0.595663 59.2401 0.000296876 59.8214 0.000296876 60.5387V64.4349C0.000296876 65.1522 0.595663 65.7335 1.33025 65.7335C2.06484 65.7335 2.66021 65.1522 2.66021 64.4349V63.9953H38.6393C38.6383 74.7738 38.6376 83.7738 38.6376 83.7738C38.6376 84.1475 38.6837 84.5058 38.7675 84.8431H3.28076C2.94442 84.8431 2.66003 84.5656 2.66003 84.237V68.6781C2.66003 67.9608 2.06467 67.3795 1.33008 67.3795C0.595489 67.3795 0.00012207 67.9608 0.00012207 68.6781V84.2368C0.00012207 86.003 1.47175 87.44 3.28058 87.44H64.1481C65.8836 87.44 67.2431 85.8295 67.2431 83.7735V28.1464C67.2435 27.3392 67.0194 26.5462 66.613 25.9128ZM64.5802 61.3979H41.3008C41.3018 55.4202 41.3031 49.089 41.3046 43.5555H64.5764C64.578 49.087 64.5792 55.419 64.5802 61.3979ZM64.5755 40.9581H41.3053C41.3076 33.3992 41.3106 27.8819 41.3141 27.8563L64.567 27.8961C64.5703 27.9217 64.5732 33.4202 64.5755 40.9581ZM52.9349 9.66314C52.9566 9.66861 63.075 25.2966 63.075 25.2966L42.8049 25.262C42.8049 25.262 52.9243 9.66878 52.933 9.66314H52.9349ZM20.4518 3.90303H20.4519C20.4519 3.28651 21.4013 2.59707 22.6723 2.59707H49.39C50.6608 2.59707 51.6104 3.28634 51.6104 3.90303V7.06573L20.4518 7.06539V3.90303ZM38.6423 40.9583H2.66003V28.461C2.66003 28.1326 2.94425 27.8549 3.28076 27.8549H38.6463C38.6449 27.8811 38.6435 33.399 38.6423 40.9583ZM5.10604 25.2579L17.0365 10.6363C17.8226 9.65597 19.3006 9.66485 19.3167 9.66195C19.3305 9.66246 49.7242 9.66297 49.7242 9.66297L39.6641 25.2577H5.10604V25.2579ZM64.1454 84.8427H41.7363C41.6296 84.8164 41.2976 84.4482 41.2976 83.7735C41.2976 83.7735 41.2985 74.7735 41.3003 63.995H64.5808C64.5825 74.7719 64.5834 83.7735 64.5834 83.7735C64.5836 84.4464 64.2534 84.8146 64.1454 84.8427Z" fill="#7AB6F3"/>
<path d="M14.1706 46.0002C13.5922 45.8456 12.9795 46.089 12.6749 46.5931L10.3543 50.4342L7.91928 46.5723C7.60743 46.0775 6.99633 45.8449 6.4244 46.0036C5.85194 46.1619 5.45667 46.6722 5.45667 47.253V56.932C5.45667 57.6492 6.05203 58.2306 6.78662 58.2306C7.52121 58.2306 8.11657 57.6492 8.11657 56.932V51.8392L9.24609 53.6305C9.48833 54.0146 9.91701 54.2482 10.3788 54.2482C10.3828 54.2482 10.3871 54.2482 10.3913 54.2482C10.8575 54.2439 11.2874 54.0016 11.5244 53.6095L12.4905 52.0102V56.9321C12.4905 57.6494 13.0859 58.2307 13.8205 58.2307C14.5551 58.2307 15.1504 57.6492 15.1504 56.9318V47.2528C15.1504 46.6676 14.7492 46.1546 14.1706 46.0002Z" fill="#7AB6F3"/>
<path d="M17.9513 45.9546C17.2167 45.9546 16.6213 46.5359 16.6213 47.2532V56.9322C16.6213 57.6495 17.2167 58.2308 17.9513 58.2308C18.6857 58.2308 19.2813 57.6493 19.2813 56.9322V47.2532C19.2811 46.5357 18.6859 45.9546 17.9513 45.9546Z" fill="#7AB6F3"/>
<path d="M26.1739 55.6336H23.3071V47.2532C23.3071 46.5359 22.7118 45.9546 21.9772 45.9546C21.2426 45.9546 20.6472 46.5359 20.6472 47.2532V56.9322C20.6472 57.6495 21.2426 58.2308 21.9772 58.2308H26.1739C26.9085 58.2308 27.5039 57.6495 27.5039 56.9322C27.5039 56.2148 26.9087 55.6336 26.1739 55.6336Z" fill="#7AB6F3"/>
<path d="M36.5792 56.2397L33.4095 51.3317L35.9798 48.0408C36.4253 47.4704 36.3129 46.6557 35.7287 46.2207C35.1445 45.7857 34.3099 45.8955 33.8646 46.4659L30.9915 50.1445V47.2534C30.9915 46.5361 30.3961 45.9548 29.6615 45.9548C28.9269 45.9548 28.3315 46.5361 28.3315 47.2534V56.9324C28.3315 57.6497 28.9269 58.231 29.6615 58.231C30.3961 58.231 30.9915 57.6497 30.9915 56.9324V54.4274L31.6881 53.5355L34.3289 57.6249C34.5819 58.0165 35.5279 58.4617 36.1631 58.0309C36.7667 57.6215 36.971 56.8464 36.5792 56.2397Z" fill="#7AB6F3"/>
</svg>
