<svg width="80" height="91" viewBox="0 0 80 91" fill="none" xmlns="http://www.w3.org/2000/svg">
<path d="M76.356 34.2129C76.5333 34.0723 76.6762 33.8948 76.7743 33.6934C76.8724 33.492 76.9232 33.2717 76.9231 33.0487V24.0354C76.9218 23.0923 76.618 22.1732 76.0542 21.4073C75.4905 20.6415 74.6953 20.0673 73.7802 19.7654C73.4899 16.9313 72.2004 14.2838 70.1322 12.2753L69.4176 11.5776C68.8689 11.0448 68.4339 10.4111 68.1378 9.71306C67.8416 9.01505 67.6903 8.2666 67.6924 7.51107C67.6924 5.51901 66.8819 3.60854 65.4394 2.19994C63.9968 0.791342 62.0402 0 60.0001 0C57.96 0 56.0034 0.791342 54.5609 2.19994C53.1183 3.60854 52.3079 5.51901 52.3079 7.51107C52.31 8.2666 52.1586 9.01505 51.8625 9.71306C51.5663 10.4111 51.1313 11.0448 50.5827 11.5776L49.8681 12.2753C47.7998 14.2838 46.5103 16.9313 46.22 19.7654C45.3049 20.0673 44.5097 20.6415 43.946 21.4073C43.3823 22.1732 43.0784 23.0923 43.0771 24.0354V33.0487C43.077 33.2717 43.1278 33.492 43.2259 33.6934C43.3241 33.8948 43.467 34.0723 43.6443 34.2129L43.2339 34.8808C41.1181 38.3246 40.0004 42.265 40.0002 46.2809V79.6173C40.0035 82.4052 41.1391 85.078 43.158 87.0494C45.1769 89.0208 47.9142 90.1296 50.7694 90.1328H69.2308C72.086 90.1296 74.8233 89.0208 76.8422 87.0494C78.8612 85.078 79.9968 82.4052 80 79.6173V46.2809C79.9998 42.2651 78.8821 38.3247 76.7664 34.881L76.356 34.2129ZM52.044 14.4L52.7586 13.7022C53.5938 12.8911 54.256 11.9262 54.7068 10.8635C55.1575 9.80078 55.388 8.66132 55.3848 7.51107C55.3848 6.31583 55.871 5.16955 56.7366 4.32439C57.6021 3.47923 58.7761 3.00443 60.0001 3.00443C61.2242 3.00443 62.3981 3.47923 63.2637 4.32439C64.1292 5.16955 64.6155 6.31583 64.6155 7.51107C64.6123 8.66132 64.8427 9.80078 65.2935 10.8635C65.7443 11.9262 66.4064 12.8911 67.2416 13.7022L67.9562 14.4C69.3868 15.7884 70.3295 17.5841 70.6485 19.5288H49.3527C49.6715 17.5842 50.6138 15.7885 52.044 14.4ZM46.1541 28.542H52.3079V25.5376H46.1541V24.0354C46.1545 23.6371 46.3167 23.2553 46.6052 22.9737C46.8936 22.6921 47.2846 22.5336 47.6925 22.5332H72.3077C72.7156 22.5336 73.1067 22.6921 73.3951 22.9737C73.6835 23.2553 73.8457 23.6371 73.8462 24.0354V25.5376H55.3848V28.542H73.8462V31.5465H46.1541V28.542ZM76.9231 79.6173C76.9208 81.6087 76.1096 83.5178 74.6675 84.9259C73.2255 86.3341 71.2702 87.1261 69.2308 87.1284H50.7694C48.73 87.1261 46.7748 86.3341 45.3327 84.9259C43.8906 83.5178 43.0794 81.6087 43.0771 79.6173V46.2809C43.0773 42.8096 44.0435 39.4035 45.8725 36.4268L47.025 34.5509H72.9752L74.1277 36.4268C75.9568 39.4035 76.923 42.8096 76.9231 46.2809V79.6173Z" fill="#7AB6F3"/>
<path d="M60.0002 49.5732H64.6156V52.578H60.0002V49.5732Z" fill="#7AB6F3"/>
<path d="M60.0002 43.5647H67.6925V46.5698H60.0002V43.5647Z" fill="#7AB6F3"/>
<path d="M60.0002 55.5818H67.6925V58.587H60.0002V55.5818Z" fill="#7AB6F3"/>
<path d="M60.0002 61.5906H64.6156V64.5956H60.0002V61.5906Z" fill="#7AB6F3"/>
<path d="M60.0002 67.5991H67.6925V70.6045H60.0002V67.5991Z" fill="#7AB6F3"/>
<path d="M34.7394 56.337C34.0562 55.7791 33.2556 55.3749 32.3944 55.1531C31.5332 54.9314 30.6326 54.8976 29.7565 55.0541C29.3702 55.1228 28.9831 55.1856 28.5962 55.2471L27 51.3495C26.4968 50.1269 26.4032 48.7802 26.7327 47.5025C27.0348 46.3224 27.0576 45.0906 26.7993 43.9007C26.5409 42.7107 26.0083 41.5939 25.2418 40.635C24.4753 39.6761 23.4951 38.9004 22.3757 38.3668C21.2562 37.8331 20.027 37.5556 18.7812 37.5552H18.1428C15.9701 37.5611 13.8875 38.4033 12.3467 39.899C11.3459 40.8769 10.6215 42.091 10.2436 43.4233C9.8658 44.7556 9.8475 46.1607 10.1905 47.5019C10.5183 48.7798 10.4249 50.1262 9.92359 51.3493L8.32745 55.2471C7.94053 55.1857 7.55361 55.1228 7.16726 55.0541C5.58082 54.7725 3.94478 55.1178 2.61905 56.014C1.29332 56.9102 0.386498 58.284 0.098077 59.833C-0.190344 61.3821 0.16326 62.9796 1.0811 64.2741C1.99894 65.5686 3.40583 66.4541 4.99228 66.7357L5.6167 66.8467C4.08803 69.1113 3.21582 71.7379 3.09262 74.4475C2.96942 77.1572 3.59984 79.8488 4.91696 82.2368C6.23408 84.6248 8.18876 86.6201 10.5735 88.0109C12.9583 89.4016 15.6843 90.1359 18.462 90.1359C21.2397 90.1359 23.9657 89.4016 26.3504 88.0109C28.7352 86.6201 30.6899 84.6248 32.007 82.2368C33.3242 79.8488 33.9546 77.1572 33.8314 74.4475C33.7082 71.7379 32.836 69.1113 31.3073 66.8467L31.9317 66.7357C33.0689 66.5338 34.1236 66.0195 34.9721 65.2531C35.8207 64.4868 36.4279 63.5001 36.7226 62.4087C37.0172 61.3174 36.9872 60.1666 36.636 59.0914C36.2847 58.0161 35.6268 57.0609 34.7394 56.3378V56.337ZM12.7807 52.4647C13.523 50.6536 13.661 48.66 13.1751 46.7679C12.9618 45.9306 12.9739 45.0538 13.2101 44.2224C13.4463 43.391 13.8986 42.6334 14.5232 42.0231C15.4854 41.0891 16.786 40.5632 18.1428 40.5596H18.7812C19.5591 40.5601 20.3266 40.7335 21.0256 41.0668C21.7246 41.4 22.3367 41.8844 22.8155 42.483C23.2942 43.0817 23.627 43.779 23.7886 44.522C23.9503 45.2649 23.9365 46.0341 23.7483 46.7711C23.26 48.6619 23.3982 50.6552 24.1431 52.4645L25.4556 55.6698C20.8078 56.1787 16.1162 56.1787 11.4684 55.6698L12.7807 52.4647ZM18.462 87.1283C16.1208 87.129 13.828 86.4775 11.8528 85.2503C9.87766 84.023 8.30207 82.271 7.31107 80.1998C6.32008 78.1287 5.95483 75.8245 6.25821 73.5577C6.56158 71.291 7.521 69.1558 9.02379 67.4029C10.3495 67.5898 11.6774 67.7373 13.0072 67.8453C11.4371 68.9683 10.2708 70.5472 9.67476 72.3563C9.07875 74.1654 9.08361 76.1122 9.68865 77.9185C10.2937 79.7247 11.4679 81.298 13.0436 82.4136C14.6193 83.5291 16.5157 84.1298 18.462 84.1298C20.4083 84.1298 22.3047 83.5291 23.8804 82.4136C25.4561 81.298 26.6303 79.7247 27.2353 77.9185C27.8404 76.1122 27.8452 74.1654 27.2492 72.3563C26.6532 70.5472 25.4869 68.9683 23.9168 67.8453C25.2464 67.7373 26.5742 67.5898 27.9002 67.4029C29.403 69.1558 30.3624 71.291 30.6658 73.5577C30.9692 75.8245 30.6039 78.1287 29.6129 80.1998C28.6219 82.271 27.0463 84.023 25.0711 85.2503C23.096 86.4775 20.8032 87.129 18.462 87.1283ZM18.462 69.1017C19.6791 69.1017 20.8689 69.4541 21.8809 70.1144C22.8929 70.7747 23.6816 71.7131 24.1474 72.8111C24.6131 73.9091 24.735 75.1172 24.4976 76.2828C24.2601 77.4485 23.674 78.5191 22.8134 79.3595C21.9528 80.1998 20.8563 80.7721 19.6625 81.004C18.4688 81.2358 17.2315 81.1168 16.107 80.662C14.9826 80.2072 14.0215 79.4371 13.3453 78.4489C12.6691 77.4608 12.3082 76.299 12.3082 75.1106C12.31 73.5175 12.959 71.9901 14.1126 70.8636C15.2663 69.7372 16.8305 69.1035 18.462 69.1017ZM31.3811 63.779L29.7565 64.0674C22.2886 65.398 14.6356 65.398 7.16765 64.0674L5.54285 63.779C4.75942 63.6399 4.06467 63.2026 3.61143 62.5633C3.15819 61.9241 2.98359 61.1351 3.12604 60.3702C3.26849 59.6052 3.71632 58.9268 4.37102 58.4842C5.02571 58.0417 5.83364 57.8712 6.61707 58.0103C14.4491 59.4057 22.4751 59.4057 30.3071 58.0103C30.695 57.9414 31.093 57.9478 31.4784 58.0292C31.8638 58.1105 32.229 58.2652 32.5531 58.4843C32.8773 58.7035 33.1541 58.9828 33.3677 59.3064C33.5813 59.63 33.7275 59.9915 33.798 60.3703C33.8686 60.749 33.862 61.1377 33.7787 61.514C33.6954 61.8903 33.537 62.2469 33.3126 62.5634C33.0882 62.8799 32.8021 63.1502 32.4707 63.3588C32.1393 63.5673 31.7691 63.7101 31.3811 63.779Z" fill="#7AB6F3"/>
<path d="M47.6926 75.1106C47.2846 75.1106 46.8933 75.2689 46.6048 75.5506C46.3163 75.8324 46.1542 76.2145 46.1542 76.6129V78.1152C46.1542 78.5137 46.3163 78.8958 46.6048 79.1776C46.8933 79.4593 47.2846 79.6176 47.6926 79.6176C48.1007 79.6176 48.492 79.4593 48.7805 79.1776C49.069 78.8958 49.2311 78.5137 49.2311 78.1152V76.6129C49.2311 76.2145 49.069 75.8324 48.7805 75.5506C48.492 75.2689 48.1007 75.1106 47.6926 75.1106Z" fill="#7AB6F3"/>
<path d="M47.6926 64.5952C47.2846 64.5952 46.8933 64.7535 46.6048 65.0352C46.3163 65.3169 46.1542 65.6991 46.1542 66.0975V70.6043C46.1542 71.0027 46.3163 71.3848 46.6048 71.6665C46.8933 71.9483 47.2846 72.1065 47.6926 72.1065C48.1007 72.1065 48.492 71.9483 48.7805 71.6665C49.069 71.3848 49.2311 71.0027 49.2311 70.6043V66.0975C49.2311 65.6991 49.069 65.3169 48.7805 65.0352C48.492 64.7535 48.1007 64.5952 47.6926 64.5952Z" fill="#7AB6F3"/>
</svg>
