<svg width="39" height="33" viewBox="0 0 39 33" fill="none" xmlns="http://www.w3.org/2000/svg">
<g clip-path="url(#clip0)">
<path d="M7.59426 26.9816L10.8602 22.0192C11.5119 21.0338 13.0436 20.6236 14.2747 21.1065L17.2833 22.2857C17.4066 22.1799 17.534 22.0698 17.6677 21.9534C18.8987 20.8929 20.5832 19.44 22.0793 17.1651C23.5804 14.885 24.1074 12.9756 24.4934 11.5814C24.534 11.4337 24.5726 11.2916 24.6123 11.1557L22.5937 10.3658L21.6007 9.97583C20.3677 9.49227 19.8953 8.29556 20.544 7.30864L23.8098 2.34583C24.4589 1.35994 25.9914 0.949562 27.2243 1.43312L28.9096 2.09893L28.8844 2.13694C29.4841 2.45345 30.037 2.85784 30.5113 3.32852C30.9547 3.77885 31.2948 4.23213 31.5507 4.71041C33.6417 8.53482 32.6847 12.8436 28.2507 19.5799C22.1214 28.891 14.9443 30.3548 14.6336 30.415C13.9543 30.5392 13.2793 30.5936 12.5674 30.5787C11.8021 30.5614 11.0534 30.4556 10.3692 30.2691L10.3481 30.2972L8.65102 29.6503C7.42012 29.1663 6.94641 27.9695 7.59426 26.9816Z" fill="white"/>
</g>
<defs>
<clipPath id="clip0">
<rect width="31.0899" height="25.2165" fill="white" transform="matrix(-0.962043 0.272899 0.347423 0.937708 29.9098 0)"/>
</clipPath>
</defs>
</svg>
