<svg width="41" height="41" viewBox="0 0 41 41" fill="none" xmlns="http://www.w3.org/2000/svg">
<path d="M39.9696 9.89005C39.3102 8.99998 38.1205 8.55867 36.6193 8.64803C35.2891 8.72707 33.8327 9.22263 32.5184 10.0434C31.9892 10.3737 31.5017 10.7467 31.0715 11.1472C31.954 9.38864 32.3401 7.61711 32.191 5.95686C32.0352 4.22327 31.2929 2.66608 30.1542 1.68465C29.0129 0.700836 27.6199 0.476104 26.6054 1.1122C25.1872 2.00151 25.2828 3.27401 25.3755 4.50473C25.464 5.68218 25.5631 7.00171 24.6727 8.67873C23.3487 8.38635 21.8675 8.23781 20.2567 8.23781C18.6722 8.23781 17.2145 8.38166 15.9107 8.66457C15.0279 6.99386 15.1269 5.67834 15.2152 4.50434C15.3079 3.27386 15.4037 2.00143 13.9854 1.11197C12.9568 0.467561 11.5983 0.685674 10.4405 1.68157C9.30347 2.65962 8.56032 4.21227 8.40159 5.94163C8.24874 7.6061 8.63419 9.38356 9.51955 11.1476C9.08924 10.7472 8.60191 10.3738 8.07282 10.0434C6.7584 9.22263 5.30194 8.72699 3.97176 8.64795C2.4707 8.55821 1.28105 8.99982 0.621659 9.88975C-0.0379811 10.7794 -0.0480431 11.957 0.593318 13.2058C1.1619 14.3127 2.19878 15.3741 3.51277 16.1943C4.76883 16.9793 6.1261 17.4568 7.38098 17.5732C7.08315 19.3012 7.04097 21.2551 7.25244 23.5121C7.4406 25.5191 7.88022 27.4418 8.55881 29.2328C8.33636 29.9139 8.22375 30.6847 8.22375 31.529C8.22375 36.2835 11.7356 40.1515 16.0522 40.1515C17.5817 40.1515 19.0344 39.6802 20.2956 38.7815C21.5568 39.6803 23.0094 40.1515 24.5389 40.1515C28.8555 40.1515 32.3674 36.2835 32.3674 31.529C32.3674 30.6914 32.257 29.9277 32.039 29.2538C32.714 27.4599 33.1523 25.5301 33.3415 23.512C33.5492 21.2956 33.5007 19.305 33.1999 17.5757C34.4545 17.4621 35.8149 16.9835 37.078 16.1946C38.3925 15.3742 39.4295 14.3128 39.998 13.2058C40.6392 11.9572 40.6291 10.7795 39.9696 9.89005ZM27.1486 4.39244C27.0543 3.13948 27.0873 2.78591 27.608 2.45936C27.9471 2.24679 28.5204 2.51416 28.9376 2.87396C29.7473 3.57186 30.3014 4.77456 30.4197 6.09093C30.5509 7.55215 30.1704 9.14059 29.3181 10.7326C28.468 10.0875 27.4876 9.56427 26.3855 9.16891C27.3597 7.20028 27.2395 5.60114 27.1486 4.39244ZM10.1727 6.0787C10.2931 4.76594 10.8476 3.56717 11.6558 2.87204C12.0724 2.51362 12.6444 2.24725 12.983 2.45921C13.5037 2.78576 13.5366 3.13918 13.4422 4.39182C13.3515 5.59606 13.2317 7.18881 14.1956 9.14844C13.0895 9.54057 12.1071 10.061 11.2575 10.7032C10.4138 9.11658 10.039 7.53414 10.1727 6.0787ZM7.74992 15.9637C6.75044 15.9121 5.58326 15.5148 4.51242 14.8455C3.47211 14.1963 2.62951 13.345 2.2007 12.5101C1.84384 11.8152 1.80376 11.1947 2.09095 10.8073C2.37788 10.4199 3.02133 10.2262 3.85672 10.2758C4.86006 10.3354 6.03227 10.7423 7.07284 11.3921C7.87141 11.8909 8.54497 12.4984 9.01252 13.1343C8.47924 13.9702 8.05655 14.9181 7.74992 15.9637ZM31.5705 23.3721C31.4448 24.7123 31.2022 26.0088 30.8471 27.2457C30.3463 26.7288 29.7248 26.3093 28.9844 25.9926C28.5395 25.8022 28.0109 25.9792 27.8036 26.3874C27.5963 26.7958 27.7888 27.2811 28.2338 27.4713C29.2382 27.9009 29.9018 28.5689 30.263 29.5141C30.48 30.0799 30.59 30.7579 30.59 31.529C30.59 35.3839 27.8755 38.5201 24.5388 38.5201C23.2191 38.5201 21.9633 38.0342 20.9069 37.1151C20.5641 36.8168 20.0269 36.8168 19.6841 37.1151C18.6277 38.0343 17.3718 38.5201 16.0521 38.5201C12.7156 38.5201 10.001 35.3839 10.001 31.529C10.001 30.759 10.1114 30.0806 10.3284 29.5122C10.3349 29.4964 10.3418 29.4807 10.3472 29.4643C11.0495 27.6992 12.8634 26.8763 16.0521 26.8763C16.7575 26.8763 17.4056 26.9186 17.9789 27.0021C19.516 27.2253 21.0748 27.2253 22.6123 27.0021C22.9751 26.9492 23.3696 26.9126 23.7849 26.8932C24.2751 26.8704 24.6523 26.4871 24.6273 26.0372C24.6023 25.5873 24.1833 25.2405 23.6947 25.2639C23.2165 25.2862 22.7586 25.329 22.3341 25.3908C20.9812 25.5872 19.6094 25.5872 18.257 25.3908C17.5923 25.294 16.8505 25.2448 16.0521 25.2448C14.2429 25.2448 12.7925 25.4877 11.6181 25.9875C10.8761 26.3032 10.2531 26.7219 9.75064 27.2384C9.39227 26.0023 9.14827 24.7082 9.02308 23.3722C8.78923 20.8771 8.88859 18.7127 9.31882 16.9379C9.63099 15.6422 10.1281 14.5158 10.798 13.5874C11.0576 13.2249 11.3495 12.8861 11.6676 12.5784C12.6972 11.5755 14.056 10.8426 15.7058 10.3999C17.0187 10.0478 18.5498 9.8692 20.2566 9.8692C21.9878 9.8692 23.5405 10.0529 24.8713 10.4152C26.5153 10.863 27.8726 11.6005 28.9079 12.6094C29.0311 12.7285 29.1505 12.8527 29.2629 12.9785C29.4455 13.1828 29.6181 13.3977 29.7775 13.6194C30.4425 14.5384 30.9411 15.6558 31.2591 16.9403C31.6987 18.7209 31.8035 20.8848 31.5705 23.3721ZM38.3901 12.5103C37.9613 13.3451 37.1188 14.1963 36.0781 14.8458C34.9969 15.5214 33.824 15.9194 32.8242 15.9659C32.5139 14.9284 32.0902 13.9882 31.5595 13.1603C32.0285 12.5141 32.7086 11.8976 33.5179 11.3924C34.5585 10.7426 35.7307 10.3357 36.734 10.2761C37.5696 10.2267 38.2129 10.4203 38.4999 10.8078C38.7872 11.1947 38.7471 11.8154 38.3901 12.5103Z" fill="white"/>
<path d="M26.3922 25.3446C26.2996 25.3338 26.2062 25.3241 26.1122 25.3151C25.6237 25.2682 25.1872 25.594 25.1366 26.0421C25.0857 26.4901 25.4404 26.891 25.9285 26.9376C26.0091 26.9453 26.0893 26.9538 26.1687 26.9631C26.2067 26.9675 26.2444 26.9696 26.2816 26.9696C26.7226 26.9696 27.1053 26.6685 27.1621 26.2563C27.2237 25.8094 26.879 25.4013 26.3922 25.3446Z" fill="white"/>
<path d="M15.6674 28.903C14.1312 28.903 12.8812 30.0502 12.8812 31.4603C12.8812 32.8704 14.1311 34.0177 15.6674 34.0177C17.2038 34.0177 18.4535 32.8705 18.4535 31.4603C18.4535 30.0501 17.2036 28.903 15.6674 28.903ZM15.6674 32.3862C15.1112 32.3862 14.6587 31.9709 14.6587 31.4603C14.6587 30.9497 15.1112 30.5344 15.6674 30.5344C16.2237 30.5344 16.6761 30.9498 16.6761 31.4603C16.6761 31.9709 16.2236 32.3862 15.6674 32.3862Z" fill="white"/>
<path d="M24.9235 28.903C23.3873 28.903 22.1373 30.0502 22.1373 31.4603C22.1373 32.8704 23.3872 34.0177 24.9235 34.0177C26.4599 34.0177 27.7096 32.8705 27.7096 31.4603C27.7096 30.0501 26.4598 28.903 24.9235 28.903ZM24.9235 32.3862C24.3673 32.3862 23.9148 31.9709 23.9148 31.4603C23.9148 30.9497 24.3674 30.5344 24.9235 30.5344C25.4798 30.5344 25.9322 30.9498 25.9322 31.4603C25.9322 31.9709 25.4798 32.3862 24.9235 32.3862Z" fill="white"/>
<path d="M13.5842 18.7503C13.0933 18.7503 12.6954 19.1156 12.6954 19.5662V20.0645C12.6954 20.5152 13.0933 20.8804 13.5842 20.8804C14.075 20.8804 14.4729 20.5152 14.4729 20.0645V19.5662C14.4728 19.1156 14.0749 18.7503 13.5842 18.7503Z" fill="white"/>
<path d="M27.0068 18.7503C26.516 18.7503 26.118 19.1156 26.118 19.5662V20.0645C26.118 20.5152 26.516 20.8804 27.0068 20.8804C27.4975 20.8804 27.8955 20.5152 27.8955 20.0645V19.5662C27.8955 19.1156 27.4976 18.7503 27.0068 18.7503Z" fill="white"/>
</svg>
