<svg width="71" height="72" viewBox="0 0 71 72" fill="none" xmlns="http://www.w3.org/2000/svg">
<path d="M59.1667 12.7128V6C59.1625 2.688 56.516 0.0042 53.25 0H5.91667C2.65067 0.0042 0.00414167 2.688 0 6V32.4C0.00917085 35.4645 2.29981 38.0274 5.30607 38.3382L9.75422 50.0475C10.9293 53.1393 14.3532 54.6795 17.4024 53.4894L45.1797 42.6384C43.2603 47.7225 43.8064 53.4258 46.6535 58.0407L47.3333 59.1432V70.8C47.3333 71.463 47.8629 72 48.5167 72H69.8167C70.4705 72 71 71.463 71 70.8V31.1895C70.9888 27.0396 69.3596 23.0634 66.4664 20.1285L59.1667 12.7128ZM59.1667 19.8894L62.7581 29.3436C63.4619 31.1994 62.5498 33.2817 60.7201 33.996L58.6673 34.8C58.9951 34.0434 59.1649 33.2256 59.1667 32.4V19.8894ZM2.36667 32.4V6C2.36667 4.0122 3.95648 2.4 5.91667 2.4H53.25C55.2102 2.4 56.8 4.0122 56.8 6V13.6272H56.7896L56.8 13.6545V32.4C56.7908 32.6094 56.7639 32.817 56.7195 33.0216L45.8802 22.0284C43.4437 19.6146 39.5594 19.596 37.1011 21.9846C34.6421 24.3747 34.4945 28.3107 36.7685 30.8817L41.3895 36H5.91667C3.95648 36 2.36667 34.3878 2.36667 32.4ZM17.5264 38.4L9.11167 41.6853L7.8668 38.4H17.5264ZM16.5513 51.2493C14.7219 51.9645 12.6673 51.0396 11.9623 49.1844L9.96603 43.92L24.0915 38.4V38.3928H43.5585L45.0965 40.0932L16.5513 51.2493ZM68.6333 69.6H49.7V60H68.6333V69.6ZM68.6333 57.6H49.1734L48.6601 56.7684C45.7749 52.0926 45.6601 46.1868 48.3605 41.4C48.6161 40.947 48.5533 40.3782 48.2055 39.9936L38.5083 29.2656C37.0623 27.6606 37.1437 25.1793 38.6917 23.676C40.2404 22.1724 42.6885 22.197 44.2067 23.7306L63.0634 42.8484L64.7366 41.1516L60.3583 36.7116L61.5724 36.2316C64.6189 35.0397 66.1371 31.5705 64.965 28.4793L60.9597 17.9325L64.7931 21.828C67.2426 24.3114 68.6239 27.6768 68.6333 31.1895V57.6Z" fill="#7AB6F3"/>
<path d="M13.49 16.8001C15.1893 16.8001 16.5667 15.4033 16.5667 13.68V7.92005C16.5667 6.19685 15.1893 4.80005 13.49 4.80005H7.81C6.11074 4.80005 4.73334 6.19685 4.73334 7.92005V13.68C4.73334 15.4033 6.11074 16.8001 7.81 16.8001H13.49ZM7.1 13.68V12.0001H9.46667V9.60005H7.1V7.92005C7.1 7.52255 7.41803 7.20005 7.81 7.20005H13.49C13.882 7.20005 14.2 7.52255 14.2 7.92005V9.60005H11.8333V12.0001H14.2V13.68C14.2 14.0775 13.882 14.4001 13.49 14.4001H7.81C7.41803 14.4001 7.1 14.0775 7.1 13.68Z" fill="#7AB6F3"/>
<path d="M5.91669 20.4001H10.65V22.8001H5.91669V20.4001Z" fill="#7AB6F3"/>
<path d="M5.91669 27.6001H10.65V30.0001H5.91669V27.6001Z" fill="#7AB6F3"/>
<path d="M27.2167 27.6001H31.95V30.0001H27.2167V27.6001Z" fill="#7AB6F3"/>
<path d="M13.0167 20.4001H17.75V22.8001H13.0167V20.4001Z" fill="#7AB6F3"/>
<path d="M20.1167 20.4001H24.85V22.8001H20.1167V20.4001Z" fill="#7AB6F3"/>
<path d="M27.2167 20.4001H31.95V22.8001H27.2167V20.4001Z" fill="#7AB6F3"/>
<path d="M49.7 6H52.0667V9.6H49.7V6Z" fill="#7AB6F3"/>
<path d="M44.9667 6H47.3333V9.6H44.9667V6Z" fill="#7AB6F3"/>
<path d="M40.2333 6H42.6V9.6H40.2333V6Z" fill="#7AB6F3"/>
<path d="M35.5 6H37.8667V9.6H35.5V6Z" fill="#7AB6F3"/>
<path d="M52.0667 62.3999H54.4333V64.7999H52.0667V62.3999Z" fill="#7AB6F3"/>
</svg>
