<svg width="69" height="69" viewBox="0 0 69 69" fill="none" xmlns="http://www.w3.org/2000/svg">
<path d="M68.177 38.9483C67.5717 37.9085 66.5802 37.1499 65.4183 36.8376C64.2564 36.5252 63.0181 36.6845 61.9731 37.2807L41.3438 49.3029C41.3356 47.7951 40.7313 46.3518 39.6628 45.288C38.5943 44.2242 37.1484 43.6263 35.6406 43.6248H12.843C12.75 43.6249 12.6573 43.6361 12.5669 43.6579L9.37317 44.4564C9.29809 43.6084 8.90893 42.8191 8.282 42.2433C7.65508 41.6674 6.83563 41.3465 5.98438 41.3436H3.70312C2.79559 41.3436 1.92522 41.7041 1.28349 42.3458C0.641768 42.9876 0.28125 43.8579 0.28125 44.7655V65.2967C0.28125 66.2042 0.641768 67.0746 1.28349 67.7163C1.92522 68.3581 2.79559 68.7186 3.70312 68.7186H5.98438C6.8333 68.716 7.6508 68.3972 8.27736 67.8244C8.90393 67.2516 9.29461 66.4659 9.37317 65.6206L12.5555 66.4043C12.6447 66.4261 12.7363 66.4372 12.8281 66.4373H28.5003C29.5091 66.4372 30.4997 66.1696 31.3713 65.6617L66.5219 45.1795C67.5596 44.5652 68.3146 43.568 68.6242 42.4025C68.9337 41.237 68.7731 39.9965 68.177 38.9483ZM7.125 65.2967C7.125 65.5992 7.00483 65.8893 6.79092 66.1033C6.57701 66.3172 6.28689 66.4373 5.98438 66.4373H3.70312C3.40061 66.4373 3.11049 66.3172 2.89658 66.1033C2.68267 65.8893 2.5625 65.5992 2.5625 65.2967V44.7655C2.5625 44.463 2.68267 44.1728 2.89658 43.9589C3.11049 43.745 3.40061 43.6248 3.70312 43.6248H5.98438C6.28689 43.6248 6.57701 43.745 6.79092 43.9589C7.00483 44.1728 7.125 44.463 7.125 44.7655V65.2967ZM65.3722 43.2097L30.2227 63.6907C29.6998 63.9954 29.1055 64.156 28.5003 64.1561H12.9673L9.40625 63.2789V46.7981L12.9821 45.9061H35.6406C36.2456 45.9046 36.8401 46.064 37.3632 46.3678C37.8863 46.6715 38.3194 47.1089 38.6179 47.635C38.9165 48.1612 39.0699 48.7572 39.0625 49.3621C39.055 49.967 38.8869 50.5591 38.5755 51.0777C38.4326 51.3186 38.2623 51.5422 38.0679 51.7438C37.4236 52.3869 36.5509 52.7486 35.6406 52.7498H24.2344V55.0311H35.6406C36.5755 55.0367 37.4971 54.8095 38.3221 54.3698C39.1471 53.9301 39.8497 53.2918 40.3662 52.5126L63.1149 39.254C63.3711 39.1042 63.6545 39.0069 63.9486 38.9676C64.2428 38.9284 64.5418 38.9479 64.8283 39.0252C65.1149 39.1024 65.3832 39.2358 65.6177 39.4177C65.8523 39.5995 66.0483 39.8261 66.1945 40.0843C66.4943 40.6091 66.5761 41.2306 66.4223 41.8151C66.2685 42.3996 65.8914 42.9004 65.3722 43.2097Z" fill="#7AB6F3"/>
<path d="M1.42188 34.5H49.3281C49.6306 34.5 49.9208 34.3798 50.1347 34.1659C50.3486 33.952 50.4688 33.6619 50.4688 33.3594V23.6378L53.7606 24.9552C54.5762 25.2822 55.4863 25.2822 56.3019 24.9552L59.5938 23.6378V26.5156C59.5938 26.8181 59.7139 27.1083 59.9278 27.3222C60.1417 27.5361 60.4319 27.6562 60.7344 27.6562H67.5781C67.8806 27.6562 68.1708 27.5361 68.3847 27.3222C68.5986 27.1083 68.7188 26.8181 68.7188 26.5156V1.42188C68.7188 1.11936 68.5986 0.82924 68.3847 0.615331C68.1708 0.401423 67.8806 0.28125 67.5781 0.28125H60.7344C60.4319 0.28125 60.1417 0.401423 59.9278 0.615331C59.7139 0.82924 59.5938 1.11936 59.5938 1.42188V2.5625H35.6406C35.3381 2.56256 35.0481 2.68278 34.8342 2.8967L30.6059 7.125H1.42188C1.11936 7.125 0.82924 7.24517 0.615331 7.45908C0.401423 7.67299 0.28125 7.96311 0.28125 8.26562V33.3594C0.28125 33.6619 0.401423 33.952 0.615331 34.1659C0.82924 34.3798 1.11936 34.5 1.42188 34.5ZM61.875 2.5625H66.4375V25.375H61.875V2.5625ZM36.1128 4.84375H59.5938V21.1809L55.4556 22.836C55.1837 22.9455 54.88 22.9455 54.6081 22.836L49.7524 20.8969C49.6176 20.8423 49.4736 20.8136 49.3281 20.8125H39.0625C38.4575 20.8125 37.8772 20.5722 37.4494 20.1443C37.0216 19.7165 36.7812 19.1363 36.7812 18.5312C36.7812 17.9262 37.0216 17.346 37.4494 16.9182C37.8772 16.4903 38.4575 16.25 39.0625 16.25H53.8906V13.9688H50.4688V8.26562C50.4688 7.96311 50.3486 7.67299 50.1347 7.45908C49.9208 7.24517 49.6306 7.125 49.3281 7.125H33.8316L36.1128 4.84375ZM2.5625 9.40625H48.1875V13.9688H39.0625C37.8525 13.9688 36.692 14.4494 35.8363 15.3051C34.9807 16.1607 34.5 17.3212 34.5 18.5312C34.5 19.7413 34.9807 20.9018 35.8363 21.7574C36.692 22.6131 37.8525 23.0938 39.0625 23.0938H48.1875V32.2188H2.5625V9.40625Z" fill="#7AB6F3"/>
<path d="M25.375 11.6875C23.5703 11.6875 21.806 12.2227 20.3054 13.2253C18.8048 14.228 17.6353 15.6531 16.9446 17.3205C16.254 18.9879 16.0732 20.8226 16.4253 22.5927C16.7774 24.3628 17.6465 25.9887 18.9227 27.2648C20.1988 28.541 21.8247 29.4101 23.5948 29.7622C25.3649 30.1143 27.1996 29.9335 28.867 29.2429C30.5344 28.5522 31.9595 27.3827 32.9622 25.8821C33.9648 24.3815 34.5 22.6173 34.5 20.8125C34.4973 18.3932 33.535 16.0738 31.8244 14.3632C30.1137 12.6525 27.7943 11.6902 25.375 11.6875ZM25.375 27.6562C24.0214 27.6562 22.6983 27.2549 21.5728 26.5029C20.4474 25.7509 19.5702 24.682 19.0522 23.4315C18.5342 22.181 18.3987 20.8049 18.6628 19.4773C18.9268 18.1498 19.5786 16.9304 20.5357 15.9732C21.4929 15.0161 22.7123 14.3643 24.0399 14.1003C25.3674 13.8362 26.7435 13.9717 27.994 14.4897C29.2445 15.0077 30.3134 15.8849 31.0654 17.0103C31.8174 18.1358 32.2188 19.4589 32.2188 20.8125C32.2169 22.627 31.4953 24.3667 30.2123 25.6498C28.9292 26.9328 27.1895 27.6544 25.375 27.6562Z" fill="#7AB6F3"/>
<path d="M4.84375 12.8281V17.3906H7.125V13.9688H10.5469V11.6875H5.98438C5.68186 11.6875 5.39174 11.8077 5.17783 12.0216C4.96392 12.2355 4.84375 12.5256 4.84375 12.8281Z" fill="#7AB6F3"/>
<path d="M7.125 24.2344H4.84375V28.7969C4.84375 29.0994 4.96392 29.3895 5.17783 29.6034C5.39174 29.8173 5.68186 29.9375 5.98438 29.9375H10.5469V27.6562H7.125V24.2344Z" fill="#7AB6F3"/>
<path d="M43.625 27.6562H40.2031V29.9375H44.7656C45.0681 29.9375 45.3583 29.8173 45.5722 29.6034C45.7861 29.3895 45.9062 29.0994 45.9062 28.7969V24.2344H43.625V27.6562Z" fill="#7AB6F3"/>
</svg>
