<svg width="60" height="60" viewBox="0 0 60 60" fill="none" xmlns="http://www.w3.org/2000/svg">
<path d="M40.0195 48.9375C37.336 48.9375 35.25 51.1406 35.25 53.8242C35.25 56.5078 37.4531 58.7109 40.0195 58.7109C42.586 58.7109 44.7891 56.5078 44.7891 53.8242C44.7891 51.1406 42.586 48.9375 40.0195 48.9375ZM40.0195 56.2617C38.6719 56.2617 37.6992 55.1602 37.6992 53.8125C37.6992 52.4648 38.8008 51.3633 40.0195 51.3633C41.2383 51.3633 42.3399 52.4648 42.3399 53.8125C42.3399 55.1602 41.2383 56.2617 40.0195 56.2617Z" fill="#616E7B"/>
<path d="M13.9922 48.9375C11.3086 48.9375 9.22266 51.1406 9.22266 53.8242C9.22266 56.5078 11.4258 58.7109 13.9922 58.7109C16.6758 58.7109 18.7617 56.5078 18.7617 53.8242C18.7617 51.1406 16.5586 48.9375 13.9922 48.9375ZM13.9922 56.2617C12.6445 56.2617 11.6719 55.1602 11.6719 53.8125C11.6719 52.4648 12.7734 51.3633 13.9922 51.3633C15.3398 51.3633 16.3125 52.4648 16.3125 53.8125C16.3125 55.1719 15.2227 56.2617 13.9922 56.2617Z" fill="#616E7B"/>
<path d="M51.5039 1.28906L49.6055 8.74219H1.65234L10.5 34.957C7.53516 35.3906 5.32031 37.8984 5.32031 41.1211C5.32031 44.6602 8.00391 47.4727 11.4258 47.4727H44.6602V45.1523H11.4258C9.35156 45.1523 7.75781 43.4414 7.75781 41.2383C7.75781 39.0352 9.46875 37.3242 11.4258 37.3242H44.6602H44.7774L53.4492 3.72656H58.3359V1.28906H51.5039ZM42.9492 34.8867H13.0195L5.07422 11.1797H48.9375L42.9492 34.8867Z" fill="#616E7B"/>
<path d="M19.6172 16.9219H17.168V30.7266H19.6172V16.9219Z" fill="#616E7B"/>
<path d="M28.3008 16.9219H25.8516V30.7266H28.3008V16.9219Z" fill="#616E7B"/>
<path d="M36.9727 16.9219H34.5235V30.7266H36.9727V16.9219Z" fill="#616E7B"/>
</svg>
