<svg width="49" height="49" viewBox="0 0 49 49" fill="none" xmlns="http://www.w3.org/2000/svg">
<g clip-path="url(#clip0)" filter="url(#filter0_d)">
<path d="M42.745 2.25533C41.2419 0.75187 39.4309 0 37.3135 0H11.6883C9.57088 0 7.75992 0.75187 6.25618 2.25533C4.75272 3.75907 4.00085 5.56993 4.00085 7.68745V33.3124C4.00085 35.4297 4.75272 37.2407 6.25618 38.7445C7.75992 40.2482 9.57088 41.0001 11.6883 41.0001H37.3132C39.4307 41.0001 41.2416 40.2482 42.7447 38.7445C44.2484 37.2407 45.0003 35.4298 45.0003 33.3124V7.68745C45.0002 5.56993 44.2483 3.75879 42.745 2.25533ZM35.3647 15.7755C35.3826 15.9357 35.3917 16.1755 35.3917 16.4964C35.3917 17.9912 35.1735 19.4905 34.7377 20.9937C34.3019 22.4978 33.6345 23.9391 32.7354 25.3182C31.8373 26.6971 30.7652 27.9164 29.5197 28.9751C28.2739 30.0335 26.7793 30.8791 25.035 31.5104C23.2915 32.1426 21.4227 32.4587 19.4298 32.4587C16.3337 32.4587 13.4687 31.6217 10.8349 29.9497C11.262 30.0028 11.7071 30.0296 12.1695 30.0296C14.7499 30.0296 17.0722 29.2289 19.1365 27.6269C17.9266 27.6096 16.8454 27.2362 15.8934 26.5058C14.9412 25.7763 14.2785 24.8511 13.9047 23.7299C14.3673 23.8009 14.7142 23.8362 14.9455 23.8362C15.337 23.8362 15.7909 23.7651 16.3068 23.6231C15.0078 23.3736 13.9135 22.7291 13.0238 21.6881C12.1338 20.647 11.689 19.4592 11.689 18.1247V18.0713C12.6318 18.5159 13.5216 18.7472 14.3581 18.7652C12.7387 17.6795 11.9291 16.1227 11.9291 14.0941C11.9291 13.0974 12.1869 12.1544 12.703 11.2646C14.1087 12.9908 15.8173 14.3698 17.8279 15.4018C19.8386 16.4338 21.9921 17.0124 24.2875 17.1369C24.1987 16.7988 24.1541 16.3715 24.1541 15.8556C24.1541 14.3072 24.7013 12.9862 25.7958 11.8916C26.89 10.7972 28.2114 10.2498 29.7594 10.2498C31.3969 10.2498 32.7585 10.8372 33.8439 12.0118C35.0718 11.7805 36.2646 11.3265 37.4209 10.6505C36.9762 12.0204 36.1482 13.0615 34.9387 13.7734C36.095 13.6129 37.1713 13.3106 38.1677 12.8657C37.4204 14.0046 36.4858 14.9744 35.3647 15.7755Z" fill="white"/>
</g>
<defs>
<filter id="filter0_d" x="0" y="0" width="49" height="49" filterUnits="userSpaceOnUse" color-interpolation-filters="sRGB">
<feFlood flood-opacity="0" result="BackgroundImageFix"/>
<feColorMatrix in="SourceAlpha" type="matrix" values="0 0 0 0 0 0 0 0 0 0 0 0 0 0 0 0 0 0 127 0"/>
<feOffset dy="4"/>
<feGaussianBlur stdDeviation="2"/>
<feColorMatrix type="matrix" values="0 0 0 0 0.00600696 0 0 0 0 0.720833 0 0 0 0 0.549275 0 0 0 0.71 0"/>
<feBlend mode="normal" in2="BackgroundImageFix" result="effect1_dropShadow"/>
<feBlend mode="normal" in="SourceGraphic" in2="effect1_dropShadow" result="shape"/>
</filter>
<clipPath id="clip0">
<rect width="41" height="41" fill="white" transform="translate(4)"/>
</clipPath>
</defs>
</svg>
